<svg xmlns="http://www.w3.org/2000/svg" width="73.558" height="73.558" viewBox="0 0 73.558 73.558">
  <g id="_5991423_allergy_coronavirus_covid-19_flu_illness_icon" data-name="5991423_allergy_coronavirus_covid-19_flu_illness_icon" transform="translate(-1 -1)">
    <g id="Group_9635" data-name="Group 9635" transform="translate(4.559 2.186)">
      <path id="Path_917" data-name="Path 917" d="M58.1,35.388A4.755,4.755,0,1,1,54.746,34,4.775,4.775,0,0,1,58.1,35.388Z" transform="translate(4.575 3.965)" fill="#ffeaa7"/>
      <path id="Path_918" data-name="Path 918" d="M12.1,29.388A4.755,4.755,0,1,1,8.746,28,4.775,4.775,0,0,1,12.1,29.388Z" transform="translate(-4 2.847)" fill="#ffeaa7"/>
      <ellipse id="Ellipse_1495" data-name="Ellipse 1495" cx="2.5" cy="2" rx="2.5" ry="2" transform="translate(61.219 14.592)" fill="#5cd6b3"/>
      <path id="Path_919" data-name="Path 919" d="M33.765,44.746A7.707,7.707,0,0,0,40.635,40.5l.249-.5L45,41.376a11.875,11.875,0,0,1-4.283,5.861A3.559,3.559,0,0,0,33.765,48.3a3.558,3.558,0,0,0-6.952-1.068,11.875,11.875,0,0,1-4.283-5.861L26.647,40l.249.5A7.7,7.7,0,0,0,33.765,44.746Z" transform="translate(-0.546 5.084)" fill="#5cd6b3"/>
      <path id="Path_920" data-name="Path 920" d="M30.7,52.67v8.7A4.926,4.926,0,0,1,26.26,58.59Z" transform="translate(0.15 7.446)" fill="#ef7385"/>
      <path id="Path_921" data-name="Path 921" d="M40.915,61.949a4.884,4.884,0,0,0,.392.475H38.1a2.38,2.38,0,0,0-1.685.7l-.664.664a3.442,3.442,0,0,1-5.517-.9L30,62.423v-8.7l.237-.32A10.664,10.664,0,0,0,32.373,47a10.664,10.664,0,0,0,2.136,6.407Z" transform="translate(0.847 6.389)" fill="#ccd1d9"/>
      <path id="Path_922" data-name="Path 922" d="M44.836,56.417l-6.81-5.956V48.089a3.528,3.528,0,0,0-.166-1.068,11.875,11.875,0,0,0,4.283-5.861l.38.119a14.253,14.253,0,0,1,9.74,13.513v1.6H45.145V56.7l-.012.012A1.752,1.752,0,0,0,44.836,56.417Z" transform="translate(2.312 5.3)" fill="#ef7385"/>
      <path id="Path_923" data-name="Path 923" d="M21.427,56.417a1.753,1.753,0,0,0-.3.3l-.012-.012v-.308H14v-1.6a14.253,14.253,0,0,1,9.74-13.513l.38-.119A11.875,11.875,0,0,0,28.4,47.021a3.528,3.528,0,0,0-.166,1.068v2.373Z" transform="translate(-2.136 5.3)" fill="#ef7385"/>
      <path id="Path_924" data-name="Path 924" d="M53.355,58.237a7.122,7.122,0,0,1-10.3,6.371,6.945,6.945,0,0,1-2.124-1.625,4.885,4.885,0,0,1-.392-.475l-6.407-8.542A10.664,10.664,0,0,1,32,47.559a3.559,3.559,0,0,1,7.118,0v2.373l6.81,5.956a1.753,1.753,0,0,1,.3.3l.012-.012v-.308h7.118Z" transform="translate(1.22 5.829)" fill="#f0d0b4"/>
      <path id="Path_925" data-name="Path 925" d="M21.13,56.184a1.753,1.753,0,0,1,.3-.3l6.81-5.956V47.559a3.559,3.559,0,0,1,7.118,0,10.664,10.664,0,0,1-2.136,6.407l-.237.32-4.437,5.92-1.732,2.3a6.927,6.927,0,0,1-2.515,2.1A7.122,7.122,0,0,1,14,58.237V55.864h7.118v.308Z" transform="translate(-2.136 5.829)" fill="#f0d0b4"/>
      <path id="Path_926" data-name="Path 926" d="M38.684,14.79a4.192,4.192,0,0,1-3.18,1.447,4.394,4.394,0,0,1-1.032-.131L26,13.995a4.394,4.394,0,0,0-1.032-.131,4.213,4.213,0,0,0-4.224,4.224v7.641H19.559a3.519,3.519,0,0,0-2.4.937l-1.1-9.847c-.036-.38-.059-.783-.059-1.175A10.661,10.661,0,0,1,24.756,5.156l16.479-3A9.627,9.627,0,0,1,42.979,2a3.778,3.778,0,0,1,2.729,1.139,3.866,3.866,0,0,1,.842,1.234h7.024A5.139,5.139,0,0,1,58.711,9.51,5.083,5.083,0,0,1,57.94,12.2a5.148,5.148,0,0,1-2.064,1.9l-1.91.949.51.51a6.348,6.348,0,0,1,1.863,4.5,6.413,6.413,0,0,1-1.269,3.808L52.9,26.749a3.545,3.545,0,0,0-2.491-1.02H49.22V19.595a8.07,8.07,0,0,0-1.353-4.485A4.2,4.2,0,0,1,45,16.237a4.394,4.394,0,0,1-1.032-.131Z" transform="translate(-1.763 -2)" fill="#b27946"/>
      <path id="Path_927" data-name="Path 927" d="M52.9,24.884a3.545,3.545,0,0,0-2.491-1.02H49.22V17.73a8.07,8.07,0,0,0-1.353-4.485A4.2,4.2,0,0,1,45,14.373a4.394,4.394,0,0,1-1.032-.131l-5.28-1.317a4.192,4.192,0,0,1-3.18,1.447,4.394,4.394,0,0,1-1.032-.131L26,12.131A4.394,4.394,0,0,0,24.969,12a4.213,4.213,0,0,0-4.224,4.224v7.641H19.559a3.559,3.559,0,0,0,0,7.118h1.186a11.871,11.871,0,0,0,8.115,11.259l-1,2.978.249.5a7.684,7.684,0,0,0,13.739,0l.249-.5-1-2.978A11.871,11.871,0,0,0,49.22,30.983h1.186a3.565,3.565,0,0,0,3.559-3.559A3.509,3.509,0,0,0,52.9,24.884Z" transform="translate(-1.763 -0.136)" fill="#f0d0b4"/>
      <path id="Path_928" data-name="Path 928" d="M38.746,18.368v2.005A2.366,2.366,0,1,1,36.373,18,8,8,0,0,1,38.746,18.368Z" transform="translate(1.592 0.983)" fill="#b27946"/>
      <path id="Path_929" data-name="Path 929" d="M30.046,18.7A2.366,2.366,0,1,1,26,20.373V18.368A8,8,0,0,1,28.373,18,2.32,2.32,0,0,1,30.046,18.7Z" transform="translate(0.101 0.983)" fill="#b27946"/>
    </g>
    <g id="Group_9636" data-name="Group 9636" transform="translate(1 1)">
      <path id="Path_930" data-name="Path 930" d="M32.595,20.559A3.564,3.564,0,0,0,29.036,17a9,9,0,0,0-5.005,1.515l-1.585,1.057,1.316,1.974,1.585-1.057c.043-.028.085-.057.129-.084v.154a3.56,3.56,0,0,0,7.12,0Zm-4.746,0V19.478a6.7,6.7,0,0,1,1.186-.106,1.186,1.186,0,1,1-1.186,1.186Z" transform="translate(2.998 1.983)"/>
      <path id="Path_931" data-name="Path 931" d="M36.559,24.118a3.564,3.564,0,0,0,3.559-3.559v-.154c.044.027.087.056.129.084l1.585,1.057,1.316-1.974-1.585-1.057a9,9,0,0,0-5-1.515,3.559,3.559,0,0,0,0,7.118Zm0-4.746a6.7,6.7,0,0,1,1.186.106v1.081a1.186,1.186,0,1,1-1.186-1.186Z" transform="translate(4.965 1.983)"/>
      <path id="Path_932" data-name="Path 932" d="M37.595,33.373V31H35.94a15.266,15.266,0,0,0-8.495,2.572l1.316,1.974a12.9,12.9,0,0,1,7.179-2.174Z" transform="translate(3.93 4.592)"/>
      <rect id="Rectangle_5426" data-name="Rectangle 5426" width="3" height="2" transform="translate(32.779 28.779)"/>
      <rect id="Rectangle_5427" data-name="Rectangle 5427" width="3" height="4" transform="translate(37.779 28.779)"/>
      <path id="Path_933" data-name="Path 933" d="M47.538,47.645,43.6,46.332l-.451-1.351A13.073,13.073,0,0,0,50.906,34.22h.059a4.73,4.73,0,0,0,3.989-7.3l1.622-2.163a7.58,7.58,0,0,0,1.508-4.521,7.481,7.481,0,0,0-1.606-4.652l.485-.243A6.319,6.319,0,0,0,54.138,3.373H47.807A5.038,5.038,0,0,0,43.542,1a10.971,10.971,0,0,0-1.961.177l-16.477,3a11.845,11.845,0,0,0-9.731,11.66,12.059,12.059,0,0,0,.072,1.309l1.037,9.322a4.7,4.7,0,0,0-1.109,3.011,4.75,4.75,0,0,0,4.746,4.746h.061A13.071,13.071,0,0,0,27.937,44.98l-.451,1.351-3.939,1.313A15.4,15.4,0,0,0,13,62.277v3.976a8.3,8.3,0,0,0,14.949,4.983L28.7,70.23a6.171,6.171,0,0,0,3.712,1.908A4.635,4.635,0,0,0,39.764,73.2l.667-.668a1.2,1.2,0,0,1,.839-.348h2.716a8.291,8.291,0,0,0,14.1-5.932V62.277A15.4,15.4,0,0,0,47.538,47.645ZM43.23,48.71l1.962.655a10.5,10.5,0,0,1-2.368,3.3,4.75,4.75,0,0,0-1.758-1.4A8.815,8.815,0,0,0,43.23,48.71Zm-7.688,2.119a6.46,6.46,0,0,1-5.807-3.588L29.7,47.18l.484-1.453a13.005,13.005,0,0,0,2.981.357h4.746a12.987,12.987,0,0,0,2.98-.357l.484,1.452-.031.061A6.455,6.455,0,0,1,35.542,50.829ZM50.965,31.847V27.1a2.373,2.373,0,0,1,0,4.746Zm-30.847,0a2.373,2.373,0,1,1,0-4.746Zm0-13.57v6.452a4.666,4.666,0,0,0-1.415.24l-.9-8.087a9.693,9.693,0,0,1-.058-1.049,9.474,9.474,0,0,1,7.783-9.325l16.477-3a8.546,8.546,0,0,1,1.536-.139,2.678,2.678,0,0,1,1.485,4.906L43.188,9.5,44.5,11.478l1.839-1.226a5.04,5.04,0,0,0,2.249-4.2c0-.1-.025-.2-.031-.3h5.576A3.946,3.946,0,0,1,55.9,13.221l-3.381,1.691L54.2,16.589a5.12,5.12,0,0,1,1.513,3.649,5.2,5.2,0,0,1-1.032,3.1L53.2,25.311a4.688,4.688,0,0,0-2.232-.583V19.78a9.252,9.252,0,0,0-1.1-4.343,5.361,5.361,0,0,0,1.1-3.239V10.491H48.592V12.2a3.038,3.038,0,0,1-3.778,2.948l-3.738-.935a5.362,5.362,0,0,0,.4-2.013V10.491H39.1V12.2a3.038,3.038,0,0,1-3.778,2.948l-8.48-2.12a5.413,5.413,0,0,0-6.725,5.251Zm2.373,14.757V18.277a3.038,3.038,0,0,1,3.778-2.948l8.48,2.12a5.429,5.429,0,0,0,1.312.161,5.364,5.364,0,0,0,3.512-1.329l4.666,1.167a5.446,5.446,0,0,0,1.313.161A5.349,5.349,0,0,0,48,17a6.89,6.89,0,0,1,.594,2.781V33.033A10.69,10.69,0,0,1,37.915,43.711H33.169A10.69,10.69,0,0,1,22.491,33.033ZM27.854,48.71a8.879,8.879,0,0,0,2.163,2.558,4.759,4.759,0,0,0-1.758,1.4,10.525,10.525,0,0,1-2.368-3.3ZM15.373,62.277a13.025,13.025,0,0,1,8.249-12.125A12.9,12.9,0,0,0,27.3,54.995a4.449,4.449,0,0,0-.059.58v1.834l-4.746,4.152V57.948H20.118v4.746H15.373Zm16.61,7.332a3.777,3.777,0,0,1-1.822-1.322l1.822-2.43Zm.475-8.339-6.407,8.542a5.932,5.932,0,0,1-10.678-3.559V65.066H19.1a9.026,9.026,0,0,0-1.357,4.746h2.373a6.657,6.657,0,0,1,2.273-5.01l7.218-6.315V55.575a2.373,2.373,0,0,1,4.746,0A9.551,9.551,0,0,1,32.457,61.27Zm8.813,8.542a3.533,3.533,0,0,0-2.516,1.043l-.667.668a2.264,2.264,0,0,1-3.623-.587l-.108-.216V62.693a11.741,11.741,0,0,0,1.186-1.974,11.694,11.694,0,0,0,1.186,1.974l5.339,7.118Zm14.441-3.559a5.932,5.932,0,0,1-10.678,3.559L38.627,61.27a9.551,9.551,0,0,1-1.9-5.695,2.373,2.373,0,1,1,4.746,0v2.911L48.692,64.8a6.657,6.657,0,0,1,2.273,5.01h2.373a9.026,9.026,0,0,0-1.357-4.746h3.73Zm0-3.559H50.965V57.948H48.592v3.615L43.847,57.41V55.575a4.706,4.706,0,0,0-.058-.581,12.9,12.9,0,0,0,3.674-4.843,13.029,13.029,0,0,1,8.248,12.126Z" transform="translate(1.237 -1)"/>
      <path id="Path_934" data-name="Path 934" d="M11.373,8.118h2.373V5.746h2.373V3.373H13.746V1H11.373V3.373H9V5.746h2.373Z" transform="translate(0.491 -1)"/>
      <path id="Path_935" data-name="Path 935" d="M62.273,15.746a3.556,3.556,0,0,0-2.155-2.155V11H57.746v2.591a3.556,3.556,0,0,0-2.155,2.155H53v2.373h2.591a3.556,3.556,0,0,0,2.155,2.155v2.591h2.373V20.273a3.556,3.556,0,0,0,2.155-2.155h2.591V15.746Zm-3.341,2.373a1.186,1.186,0,1,1,1.186-1.186A1.188,1.188,0,0,1,58.932,18.118Z" transform="translate(8.693 0.864)"/>
      <path id="Path_936" data-name="Path 936" d="M14.249,36.571a5.9,5.9,0,0,0,.868-2.08H17.61V32.118H15.117a5.886,5.886,0,0,0-.868-2.08l1.827-1.827L14.4,26.534l-1.827,1.827a5.9,5.9,0,0,0-2.08-.868V25H8.118v2.493a5.9,5.9,0,0,0-2.08.868L4.212,26.534,2.534,28.212l1.827,1.827a5.886,5.886,0,0,0-.868,2.08H1v2.373H3.493a5.886,5.886,0,0,0,.868,2.08L2.534,38.4l1.678,1.678,1.827-1.827a5.9,5.9,0,0,0,2.08.868V41.61h2.373V39.117a5.9,5.9,0,0,0,2.08-.868L14.4,40.076,16.076,38.4ZM9.3,36.864A3.559,3.559,0,1,1,12.864,33.3,3.564,3.564,0,0,1,9.3,36.864Z" transform="translate(-1 3.474)"/>
      <path id="Path_937" data-name="Path 937" d="M60.249,36.039l1.827-1.827L60.4,32.534l-1.827,1.827a5.886,5.886,0,0,0-2.08-.868V31H54.118v2.493a5.9,5.9,0,0,0-2.08.868l-1.827-1.827-1.678,1.678,1.827,1.827a5.9,5.9,0,0,0-.868,2.08H47v2.373h2.493a5.886,5.886,0,0,0,.868,2.08L48.534,44.4l1.678,1.678,1.827-1.827a5.886,5.886,0,0,0,2.08.868V47.61h2.373V45.117a5.9,5.9,0,0,0,2.08-.868L60.4,46.076,62.076,44.4l-1.827-1.827a5.9,5.9,0,0,0,.868-2.08H63.61V38.118H61.117A5.886,5.886,0,0,0,60.249,36.039ZM55.3,42.864A3.559,3.559,0,1,1,58.864,39.3,3.564,3.564,0,0,1,55.3,42.864Z" transform="translate(7.575 4.592)"/>
    </g>
  </g>
</svg>
