<svg id="artwork" xmlns="http://www.w3.org/2000/svg" width="366" height="165.349" viewBox="0 0 366 165.349">
  <rect id="Rectangle" width="10.881" height="37.664" transform="translate(320.59 66.922)" fill="#f2f2f2"/>
  <path id="Path" d="M111.807,31.483,85.344,0,32.224.486,0,31.872l.651.418H.418V97.575H111.736V32.291l.071-.808Z" transform="translate(226.849 67.308)" fill="#f2f2f2"/>
  <path id="Path-2" data-name="Path" d="M33.06,0,0,38.76V97.508H59.425V31.386L33.06,0Z" transform="translate(279.16 67.375)" fill="#e6e6e6"/>
  <rect id="Rectangle-2" data-name="Rectangle" width="12.136" height="10.727" transform="translate(303.013 132.394)" fill="#3f3d56"/>
  <rect id="Rectangle-3" data-name="Rectangle" width="12.136" height="10.557" transform="translate(303.013 113.097)" fill="#3f3d56"/>
  <rect id="Rectangle-4" data-name="Rectangle" width="12.136" height="10.727" transform="translate(303.013 132.394)" fill="#fff"/>
  <rect id="Rectangle-5" data-name="Rectangle" width="12.136" height="10.557" transform="translate(303.013 113.097)" fill="#fff"/>
  <rect id="Rectangle-6" data-name="Rectangle" width="12.136" height="10.727" transform="translate(247.272 129.1)" fill="#fff"/>
  <rect id="Rectangle-7" data-name="Rectangle" width="12.136" height="10.557" transform="translate(247.272 110.2)" fill="#fff"/>
  <rect id="Rectangle-8" data-name="Rectangle" width="10.881" height="37.664" transform="translate(232.657 66.922)" fill="#f2f2f2"/>
  <path id="Path-3" data-name="Path" d="M111.807,31.483,85.344,0,32.224.486,0,31.872l.651.418H.418V97.575H111.736V32.291l.071-.808Z" transform="translate(138.248 67.308)" fill="#f2f2f2"/>
  <path id="Path-4" data-name="Path" d="M33.06,0,0,38.76V97.508H59.425V31.386L33.06,0Z" transform="translate(191.035 67.375)" fill="#e6e6e6"/>
  <rect id="Rectangle-9" data-name="Rectangle" width="12.136" height="10.727" transform="translate(214.792 132.394)" fill="#3f3d56"/>
  <rect id="Rectangle-10" data-name="Rectangle" width="12.136" height="10.557" transform="translate(214.792 113.097)" fill="#3f3d56"/>
  <rect id="Rectangle-11" data-name="Rectangle" width="12.136" height="10.727" transform="translate(214.792 132.394)" fill="#fff"/>
  <rect id="Rectangle-12" data-name="Rectangle" width="12.136" height="10.557" transform="translate(214.792 113.097)" fill="#fff"/>
  <rect id="Rectangle-13" data-name="Rectangle" width="12.136" height="10.727" transform="translate(159.928 129.1)" fill="#fff"/>
  <rect id="Rectangle-14" data-name="Rectangle" width="12.136" height="10.557" transform="translate(159.928 110.2)" fill="#fff"/>
  <rect id="Rectangle-15" data-name="Rectangle" width="14.539" height="50.328" transform="translate(139.531 33.793)" fill="#f2f2f2"/>
  <path id="Path-5" data-name="Path" d="M149.4,42.068,114.04,0,43.058.649,0,42.589l.87.559H.559v87.235H149.306V43.148l.1-1.08Z" transform="translate(11.888 34.499)" fill="#f2f2f2"/>
  <path id="Path-6" data-name="Path" d="M44.177,0,0,51.793v78.5H79.407V41.94L44.177,0Z" transform="translate(83.537 34.588)" fill="#e6e6e6"/>
  <rect id="Rectangle-16" data-name="Rectangle" width="16.217" height="14.334" transform="translate(115.646 120.93)" fill="#3f3d56"/>
  <rect id="Rectangle-17" data-name="Rectangle" width="16.217" height="14.106" transform="translate(115.646 95.664)" fill="#3f3d56"/>
  <rect id="Rectangle-18" data-name="Rectangle" width="16.217" height="14.334" transform="translate(115.646 120.93)" fill="#fff"/>
  <rect id="Rectangle-19" data-name="Rectangle" width="16.217" height="14.106" transform="translate(115.646 95.664)" fill="#fff"/>
  <rect id="Rectangle-20" data-name="Rectangle" width="16.217" height="14.334" transform="translate(41.594 117.057)" fill="#fff"/>
  <rect id="Rectangle-21" data-name="Rectangle" width="16.217" height="14.106" transform="translate(41.594 91.791)" fill="#fff"/>
  <rect id="Rectangle-22" data-name="Rectangle" width="353.766" height="0.722" transform="translate(0 164.56)" fill="#3f3d56"/>
  <ellipse id="Oval" cx="10.498" cy="21.421" rx="10.498" ry="21.421" transform="translate(44.293 108.452)" fill="#3f3d56"/>
  <path id="Path-7" data-name="Path" d="M1.878,50.614C-2.326,25.387,1.836.251,1.878,0L2.7.139c-.042.25-4.181,25.253,0,50.339Z" transform="translate(53.882 114.321)" fill="#158afe"/>
  <path id="Rectangle-23" data-name="Rectangle" d="M0,0H10.766V.83H0Z" transform="translate(54.541 129.752) rotate(-28.142)" fill="#158afe"/>
  <path id="Rectangle-24" data-name="Rectangle" d="M0,0H.83V10.766H0Z" transform="matrix(0.472, -0.882, 0.882, 0.472, 44.521, 127.993)" fill="#158afe"/>
  <ellipse id="Oval-2" data-name="Oval" cx="20.533" cy="41.896" rx="20.533" ry="41.896" transform="translate(9.034 54.026)" fill="#158afe"/>
  <path id="Path-8" data-name="Path" d="M3.669,98.863C-4.544,49.587,3.586.49,3.669,0l.818.139C4.4.627-3.7,49.592,4.487,98.727Z" transform="translate(28.186 66.487)" fill="#3f3d56"/>
  <path id="Rectangle-25" data-name="Rectangle" d="M0,0H21.057V.83H0Z" transform="translate(29.264 96.923) rotate(-28.142)" fill="#3f3d56"/>
  <path id="Rectangle-26" data-name="Rectangle" d="M0,0H.83V21.057H0Z" transform="translate(9.668 92.787) rotate(-61.843)" fill="#3f3d56"/>
  <ellipse id="Oval-3" data-name="Oval" cx="28.098" cy="57.332" rx="28.098" ry="57.332" transform="translate(50.1 11.579)" fill="#158afe"/>
  <path id="Path-9" data-name="Path" d="M5.018,135.235C-6.216,67.83,4.9.67,5.019,0l.818.139c-.113.669-11.21,67.7,0,134.961Z" transform="translate(77.756 30.114)" fill="#3f3d56"/>
  <path id="Rectangle-27" data-name="Rectangle" d="M0,0H28.815V.83H0Z" transform="translate(79.254 71.831) rotate(-28.142)" fill="#3f3d56"/>
  <path id="Rectangle-28" data-name="Rectangle" d="M0,0H.83V28.815H0Z" transform="translate(51.04 65.905) rotate(-61.843)" fill="#3f3d56"/>
  <ellipse id="Oval-4" data-name="Oval" cx="10.498" cy="21.421" rx="10.498" ry="21.421" transform="translate(309.744 108.452)" fill="#3f3d56"/>
  <path id="Path-10" data-name="Path" d="M.818,50.614C5.023,25.387.861.251.818,0L0,.139c.042.25,4.181,25.253,0,50.339Z" transform="translate(318.455 114.321)" fill="#158afe"/>
  <path id="Rectangle-29" data-name="Rectangle" d="M0,0H.83V10.766H0Z" transform="translate(310.609 125.406) rotate(-61.858)" fill="#158afe"/>
  <path id="Rectangle-30" data-name="Rectangle" d="M0,0H10.766V.83H0Z" transform="matrix(0.882, -0.472, 0.472, 0.882, 320.629, 132.342)" fill="#158afe"/>
  <ellipse id="Oval-5" data-name="Oval" cx="20.533" cy="41.896" rx="20.533" ry="41.896" transform="translate(324.933 54.026)" fill="#158afe"/>
  <path id="Path-11" data-name="Path" d="M.818,98.863C9.031,49.587.9.49.818,0L0,.139C.083.627,8.189,49.592,0,98.727Z" transform="translate(342.361 66.487)" fill="#3f3d56"/>
  <path id="Rectangle-31" data-name="Rectangle" d="M0,0H.83V21.057H0Z" transform="translate(326.811 87.723) rotate(-61.858)" fill="#3f3d56"/>
  <path id="Rectangle-32" data-name="Rectangle" d="M0,0H21.057V.83H0Z" transform="translate(346.409 101.992) rotate(-28.157)" fill="#3f3d56"/>
  <ellipse id="Oval-6" data-name="Oval" cx="28.098" cy="57.332" rx="28.098" ry="57.332" transform="translate(268.737 11.579)" fill="#158afe"/>
  <path id="Path-12" data-name="Path" d="M.818,135.235C12.053,67.83.932.67.818,0L0,.139c.113.669,11.21,67.7,0,134.961Z" transform="translate(291.594 30.114)" fill="#3f3d56"/>
  <path id="Rectangle-33" data-name="Rectangle" d="M0,0H.83V28.815H0Z" transform="translate(270.142 58.972) rotate(-61.858)" fill="#3f3d56"/>
  <path id="Rectangle-34" data-name="Rectangle" d="M0,0H28.815V.83H0Z" transform="translate(298.197 78.771) rotate(-28.157)" fill="#3f3d56"/>
  <path id="Path-13" data-name="Path" d="M4.963,2.693,8.284.037A3.519,3.519,0,0,0,4.21,2.273,5.657,5.657,0,0,0,0,2.533L6.645,4.946A5.028,5.028,0,0,0,4.963,2.693Z" transform="translate(211.294 34.495)" fill="#3f3d56"/>
  <path id="Path-14" data-name="Path" d="M4.963,2.693,8.284.037A3.519,3.519,0,0,0,4.21,2.273,5.657,5.657,0,0,0,0,2.533L6.645,4.946A5.028,5.028,0,0,0,4.963,2.693Z" transform="translate(128.735 10.462)" fill="#3f3d56"/>
  <path id="Path-15" data-name="Path" d="M4.963,2.693,8.284.037A3.519,3.519,0,0,0,4.21,2.273,5.657,5.657,0,0,0,0,2.533L6.645,4.946A5.028,5.028,0,0,0,4.963,2.693Z" transform="translate(263.397)" fill="#3f3d56"/>
  <path id="Path-16" data-name="Path" d="M11.545.722A5.021,5.021,0,0,0,9.03,1.4,5.4,5.4,0,0,0,0,5.412H16.577A5.047,5.047,0,0,0,11.545.722Z" transform="translate(263.63 159.665)" fill="#3f3d56"/>
  <path id="Path-17" data-name="Path" d="M11.545.722A5.021,5.021,0,0,0,9.03,1.4,5.4,5.4,0,0,0,0,5.412H16.577A5.047,5.047,0,0,0,11.545.722Z" transform="translate(92.206 159.665)" fill="#3f3d56"/>
  <path id="Path-18" data-name="Path" d="M11.545.722A5.021,5.021,0,0,0,9.03,1.4,5.4,5.4,0,0,0,0,5.412H16.577A5.047,5.047,0,0,0,11.545.722Z" transform="translate(179.937 159.665)" fill="#3f3d56"/>
  <path id="Path-19" data-name="Path" d="M47.827,0H0V1.543H7.459V16.2H9V1.543H38.053V16.2H39.6V1.543h8.23V0Z" transform="translate(124.722 148.545)" fill="#3f3d56"/>
  <rect id="Rectangle-35" data-name="Rectangle" width="47.827" height="1.543" transform="translate(124.818 143.929)" fill="#3f3d56"/>
  <rect id="Rectangle-36" data-name="Rectangle" width="47.827" height="1.543" transform="translate(124.818 140.072)" fill="#3f3d56"/>
  <rect id="Rectangle-37" data-name="Rectangle" width="47.827" height="1.543" transform="translate(124.818 136.215)" fill="#3f3d56"/>
  <path id="Path-20" data-name="Path" d="M47.827,0H0V1.543H7.459V16.2H9V1.543H38.053V16.2H39.6V1.543h8.23V0Z" transform="translate(200.838 148.545)" fill="#3f3d56"/>
  <rect id="Rectangle-38" data-name="Rectangle" width="47.827" height="1.543" transform="translate(200.933 143.929)" fill="#3f3d56"/>
  <rect id="Rectangle-39" data-name="Rectangle" width="47.827" height="1.543" transform="translate(200.933 140.072)" fill="#3f3d56"/>
  <rect id="Rectangle-40" data-name="Rectangle" width="47.827" height="1.543" transform="translate(200.933 136.215)" fill="#3f3d56"/>
</svg>
