<svg xmlns="http://www.w3.org/2000/svg" width="25" height="25" viewBox="0 0 25 25">
  <path id="Category" d="M17.483,25a3.736,3.736,0,0,1-3.719-3.744v-3.83a3.736,3.736,0,0,1,3.719-3.745h3.8A3.735,3.735,0,0,1,25,17.426v3.83A3.735,3.735,0,0,1,21.282,25Zm-1.976-7.574v3.83a1.991,1.991,0,0,0,1.976,2h3.8a1.99,1.99,0,0,0,1.974-2v-3.83a1.99,1.99,0,0,0-1.974-2h-3.8A1.991,1.991,0,0,0,15.507,17.426ZM3.719,25A3.736,3.736,0,0,1,0,21.256v-3.83a3.736,3.736,0,0,1,3.719-3.745h3.8a3.736,3.736,0,0,1,3.719,3.745v3.83A3.736,3.736,0,0,1,7.517,25ZM1.744,17.426v3.83a1.991,1.991,0,0,0,1.976,2h3.8a1.991,1.991,0,0,0,1.976-2v-3.83a1.991,1.991,0,0,0-1.976-2h-3.8A1.991,1.991,0,0,0,1.744,17.426Zm15.739-6.108a3.736,3.736,0,0,1-3.719-3.744V3.744A3.736,3.736,0,0,1,17.483,0h3.8A3.735,3.735,0,0,1,25,3.744V7.575a3.735,3.735,0,0,1-3.718,3.744ZM15.507,3.744V7.575a1.991,1.991,0,0,0,1.976,2h3.8a1.99,1.99,0,0,0,1.974-2V3.744a1.99,1.99,0,0,0-1.974-2h-3.8A1.991,1.991,0,0,0,15.507,3.744ZM3.719,11.319A3.736,3.736,0,0,1,0,7.575V3.744A3.736,3.736,0,0,1,3.719,0h3.8a3.736,3.736,0,0,1,3.719,3.744V7.575a3.736,3.736,0,0,1-3.719,3.744ZM1.744,3.744V7.575a1.991,1.991,0,0,0,1.976,2h3.8a1.991,1.991,0,0,0,1.976-2V3.744a1.991,1.991,0,0,0-1.976-2h-3.8A1.991,1.991,0,0,0,1.744,3.744Z" fill="#002ddc"/>
</svg>
