<svg xmlns="http://www.w3.org/2000/svg" xmlns:xlink="http://www.w3.org/1999/xlink" width="536" height="377.272" viewBox="0 0 536 377.272">
  <defs>
    <filter id="Polygon_2" x="145.087" y="82.866" width="218.531" height="213.406" filterUnits="userSpaceOnUse">
      <feOffset dx="-25" dy="-25" input="SourceAlpha"/>
      <feGaussianBlur stdDeviation="13" result="blur"/>
      <feFlood flood-opacity="0.161"/>
      <feComposite operator="in" in2="blur"/>
    </filter>
    <filter id="Polygon_2-2" x="145.087" y="82.866" width="218.531" height="213.406" filterUnits="userSpaceOnUse">
      <feOffset dx="6" dy="10" input="SourceAlpha"/>
      <feGaussianBlur stdDeviation="28" result="blur-2"/>
      <feFlood flood-color="#002ddc" result="color"/>
      <feComposite operator="out" in="SourceGraphic" in2="blur-2"/>
      <feComposite operator="in" in="color"/>
      <feComposite operator="in" in2="SourceGraphic"/>
    </filter>
    <filter id="Polygon_3" x="238.087" y="81.866" width="218.531" height="213.406" filterUnits="userSpaceOnUse">
      <feOffset dx="-25" dy="-25" input="SourceAlpha"/>
      <feGaussianBlur stdDeviation="13" result="blur-3"/>
      <feFlood flood-opacity="0.161"/>
      <feComposite operator="in" in2="blur-3"/>
    </filter>
    <filter id="Polygon_3-2" x="238.087" y="81.866" width="218.531" height="213.406" filterUnits="userSpaceOnUse">
      <feOffset dx="6" dy="10" input="SourceAlpha"/>
      <feGaussianBlur stdDeviation="28" result="blur-4"/>
      <feFlood flood-color="#002ddc" result="color-2"/>
      <feComposite operator="out" in="SourceGraphic" in2="blur-4"/>
      <feComposite operator="in" in="color-2"/>
      <feComposite operator="in" in2="SourceGraphic"/>
    </filter>
    <filter id="Polygon_4" x="98.556" y="163.866" width="218.531" height="213.406" filterUnits="userSpaceOnUse">
      <feOffset dx="-25" dy="-25" input="SourceAlpha"/>
      <feGaussianBlur stdDeviation="13" result="blur-5"/>
      <feFlood flood-opacity="0.161"/>
      <feComposite operator="in" in2="blur-5"/>
    </filter>
    <filter id="Polygon_4-2" x="98.556" y="163.866" width="218.531" height="213.406" filterUnits="userSpaceOnUse">
      <feOffset dx="6" dy="10" input="SourceAlpha"/>
      <feGaussianBlur stdDeviation="28" result="blur-6"/>
      <feFlood flood-color="#002ddc" result="color-3"/>
      <feComposite operator="out" in="SourceGraphic" in2="blur-6"/>
      <feComposite operator="in" in="color-3"/>
      <feComposite operator="in" in2="SourceGraphic"/>
    </filter>
    <filter id="Polygon_5" x="192.087" y="162.866" width="218.531" height="213.406" filterUnits="userSpaceOnUse">
      <feOffset dx="-25" dy="-25" input="SourceAlpha"/>
      <feGaussianBlur stdDeviation="13" result="blur-7"/>
      <feFlood flood-opacity="0.161"/>
      <feComposite operator="in" in2="blur-7"/>
    </filter>
    <filter id="Polygon_5-2" x="192.087" y="162.866" width="218.531" height="213.406" filterUnits="userSpaceOnUse">
      <feOffset dx="6" dy="10" input="SourceAlpha"/>
      <feGaussianBlur stdDeviation="28" result="blur-8"/>
      <feFlood flood-color="#002ddc" result="color-4"/>
      <feComposite operator="out" in="SourceGraphic" in2="blur-8"/>
      <feComposite operator="in" in="color-4"/>
      <feComposite operator="in" in2="SourceGraphic"/>
    </filter>
    <filter id="Polygon_6" x="284.617" y="161.866" width="218.531" height="213.406" filterUnits="userSpaceOnUse">
      <feOffset dx="-25" dy="-25" input="SourceAlpha"/>
      <feGaussianBlur stdDeviation="13" result="blur-9"/>
      <feFlood flood-opacity="0.161"/>
      <feComposite operator="in" in2="blur-9"/>
    </filter>
    <filter id="Polygon_6-2" x="284.617" y="161.866" width="218.531" height="213.406" filterUnits="userSpaceOnUse">
      <feOffset dx="6" dy="10" input="SourceAlpha"/>
      <feGaussianBlur stdDeviation="28" result="blur-10"/>
      <feFlood flood-color="#002ddc" result="color-5"/>
      <feComposite operator="out" in="SourceGraphic" in2="blur-10"/>
      <feComposite operator="in" in="color-5"/>
      <feComposite operator="in" in2="SourceGraphic"/>
    </filter>
    <filter id="Line_2435" x="0" y="257.569" width="200.852" height="79" filterUnits="userSpaceOnUse">
      <feOffset dx="-25" dy="-25" input="SourceAlpha"/>
      <feGaussianBlur stdDeviation="13" result="blur-11"/>
      <feFlood flood-opacity="0.161"/>
      <feComposite operator="in" in2="blur-11"/>
      <feComposite in="SourceGraphic"/>
    </filter>
    <filter id="Line_2436" x="400.852" y="255.569" width="135.148" height="79" filterUnits="userSpaceOnUse">
      <feOffset dx="-25" dy="-25" input="SourceAlpha"/>
      <feGaussianBlur stdDeviation="13" result="blur-12"/>
      <feFlood flood-opacity="0.22"/>
      <feComposite operator="in" in2="blur-12"/>
      <feComposite in="SourceGraphic"/>
    </filter>
    <filter id="Polygon_7" x="191.087" y="0" width="220.397" height="215.638" filterUnits="userSpaceOnUse">
      <feOffset dx="-25" dy="-25" input="SourceAlpha"/>
      <feGaussianBlur stdDeviation="13" result="blur-13"/>
      <feFlood flood-opacity="0.161"/>
      <feComposite operator="in" in2="blur-13"/>
    </filter>
    <filter id="Polygon_7-2" x="191.087" y="0" width="220.397" height="215.638" filterUnits="userSpaceOnUse">
      <feOffset dx="6" dy="10" input="SourceAlpha"/>
      <feGaussianBlur stdDeviation="28" result="blur-14"/>
      <feFlood flood-color="#002ddc" result="color-6"/>
      <feComposite operator="out" in="SourceGraphic" in2="blur-14"/>
      <feComposite operator="in" in="color-6"/>
      <feComposite operator="in" in2="SourceGraphic"/>
    </filter>
  </defs>
  <g id="Group_9622" data-name="Group 9622" transform="translate(63.5 -268)">
    <g data-type="innerShadowGroup">
      <g transform="matrix(1, 0, 0, 1, -63.5, 268)" filter="url(#Polygon_2)">
        <g id="Polygon_2-3" data-name="Polygon 2" transform="translate(256.09 146.87) rotate(30)" fill="#002ddc">
          <path d="M 80.71060180664062 93.5 L 27.28939819335938 93.5 L 0.5766324996948242 47 L 27.28939819335938 0.5 L 80.71060180664062 0.5 L 107.4233703613281 47 L 80.71060180664062 93.5 Z" stroke="none"/>
          <path d="M 27.57878875732422 1 L 1.15325927734375 47 L 27.57878875732422 93 L 80.42121124267578 93 L 106.8467407226562 47 L 80.42121124267578 1 L 27.57878875732422 1 M 27 0 L 81 0 L 108 47 L 81 94 L 27 94 L 0 47 L 27 0 Z" stroke="none" fill="#fff"/>
        </g>
      </g>
      <g id="Polygon_2-4" data-name="Polygon 2" transform="translate(192.587 414.866) rotate(30)" fill="#002ddc">
        <path d="M 80.71060180664062 93.5 L 27.28939819335938 93.5 L 0.5766324996948242 47 L 27.28939819335938 0.5 L 80.71060180664062 0.5 L 107.4233703613281 47 L 80.71060180664062 93.5 Z" stroke="none"/>
        <path d="M 27.57878875732422 1 L 1.15325927734375 47 L 27.57878875732422 93 L 80.42121124267578 93 L 106.8467407226562 47 L 80.42121124267578 1 L 27.57878875732422 1 M 27 0 L 81 0 L 108 47 L 81 94 L 27 94 L 0 47 L 27 0 Z" stroke="none"/>
      </g>
      <g transform="matrix(1, 0, 0, 1, -63.5, 268)" filter="url(#Polygon_2-2)">
        <g id="Polygon_2-5" data-name="Polygon 2" transform="translate(256.09 146.87) rotate(30)" fill="#fff">
          <path d="M 80.71060180664062 93.5 L 27.28939819335938 93.5 L 0.5766324996948242 47 L 27.28939819335938 0.5 L 80.71060180664062 0.5 L 107.4233703613281 47 L 80.71060180664062 93.5 Z" stroke="none"/>
          <path d="M 27.57878875732422 1 L 1.15325927734375 47 L 27.57878875732422 93 L 80.42121124267578 93 L 106.8467407226562 47 L 80.42121124267578 1 L 27.57878875732422 1 M 27 0 L 81 0 L 108 47 L 81 94 L 27 94 L 0 47 L 27 0 Z" stroke="none"/>
        </g>
      </g>
      <g id="Polygon_2-6" data-name="Polygon 2" transform="translate(192.587 414.866) rotate(30)" fill="none">
        <path d="M 80.71060180664062 93.5 L 27.28939819335938 93.5 L 0.5766324996948242 47 L 27.28939819335938 0.5 L 80.71060180664062 0.5 L 107.4233703613281 47 L 80.71060180664062 93.5 Z" stroke="none"/>
        <path d="M 27.57878875732422 1 L 1.15325927734375 47 L 27.57878875732422 93 L 80.42121124267578 93 L 106.8467407226562 47 L 80.42121124267578 1 L 27.57878875732422 1 M 27 0 L 81 0 L 108 47 L 81 94 L 27 94 L 0 47 L 27 0 Z" stroke="none" fill="#fff"/>
      </g>
    </g>
    <g data-type="innerShadowGroup">
      <g transform="matrix(1, 0, 0, 1, -63.5, 268)" filter="url(#Polygon_3)">
        <g id="Polygon_3-3" data-name="Polygon 3" transform="translate(349.09 145.87) rotate(30)" fill="#002ddc">
          <path d="M 80.71060180664062 93.5 L 27.28939819335938 93.5 L 0.5766324996948242 47 L 27.28939819335938 0.5 L 80.71060180664062 0.5 L 107.4233703613281 47 L 80.71060180664062 93.5 Z" stroke="none"/>
          <path d="M 27.57878875732422 1 L 1.15325927734375 47 L 27.57878875732422 93 L 80.42121124267578 93 L 106.8467407226562 47 L 80.42121124267578 1 L 27.57878875732422 1 M 27 0 L 81 0 L 108 47 L 81 94 L 27 94 L 0 47 L 27 0 Z" stroke="none" fill="#fff"/>
        </g>
      </g>
      <g id="Polygon_3-4" data-name="Polygon 3" transform="translate(285.587 413.866) rotate(30)" fill="#002ddc">
        <path d="M 80.71060180664062 93.5 L 27.28939819335938 93.5 L 0.5766324996948242 47 L 27.28939819335938 0.5 L 80.71060180664062 0.5 L 107.4233703613281 47 L 80.71060180664062 93.5 Z" stroke="none"/>
        <path d="M 27.57878875732422 1 L 1.15325927734375 47 L 27.57878875732422 93 L 80.42121124267578 93 L 106.8467407226562 47 L 80.42121124267578 1 L 27.57878875732422 1 M 27 0 L 81 0 L 108 47 L 81 94 L 27 94 L 0 47 L 27 0 Z" stroke="none"/>
      </g>
      <g transform="matrix(1, 0, 0, 1, -63.5, 268)" filter="url(#Polygon_3-2)">
        <g id="Polygon_3-5" data-name="Polygon 3" transform="translate(349.09 145.87) rotate(30)" fill="#fff">
          <path d="M 80.71060180664062 93.5 L 27.28939819335938 93.5 L 0.5766324996948242 47 L 27.28939819335938 0.5 L 80.71060180664062 0.5 L 107.4233703613281 47 L 80.71060180664062 93.5 Z" stroke="none"/>
          <path d="M 27.57878875732422 1 L 1.15325927734375 47 L 27.57878875732422 93 L 80.42121124267578 93 L 106.8467407226562 47 L 80.42121124267578 1 L 27.57878875732422 1 M 27 0 L 81 0 L 108 47 L 81 94 L 27 94 L 0 47 L 27 0 Z" stroke="none"/>
        </g>
      </g>
      <g id="Polygon_3-6" data-name="Polygon 3" transform="translate(285.587 413.866) rotate(30)" fill="none">
        <path d="M 80.71060180664062 93.5 L 27.28939819335938 93.5 L 0.5766324996948242 47 L 27.28939819335938 0.5 L 80.71060180664062 0.5 L 107.4233703613281 47 L 80.71060180664062 93.5 Z" stroke="none"/>
        <path d="M 27.57878875732422 1 L 1.15325927734375 47 L 27.57878875732422 93 L 80.42121124267578 93 L 106.8467407226562 47 L 80.42121124267578 1 L 27.57878875732422 1 M 27 0 L 81 0 L 108 47 L 81 94 L 27 94 L 0 47 L 27 0 Z" stroke="none" fill="#fff"/>
      </g>
    </g>
    <g data-type="innerShadowGroup">
      <g transform="matrix(1, 0, 0, 1, -63.5, 268)" filter="url(#Polygon_4)">
        <g id="Polygon_4-3" data-name="Polygon 4" transform="translate(209.56 227.87) rotate(30)" fill="#002ddc">
          <path d="M 80.71060180664062 93.5 L 27.28939819335938 93.5 L 0.5766324996948242 47 L 27.28939819335938 0.5 L 80.71060180664062 0.5 L 107.4233703613281 47 L 80.71060180664062 93.5 Z" stroke="none"/>
          <path d="M 27.57878875732422 1 L 1.15325927734375 47 L 27.57878875732422 93 L 80.42121124267578 93 L 106.8467407226562 47 L 80.42121124267578 1 L 27.57878875732422 1 M 27 0 L 81 0 L 108 47 L 81 94 L 27 94 L 0 47 L 27 0 Z" stroke="none" fill="#fff"/>
        </g>
      </g>
      <g id="Polygon_4-4" data-name="Polygon 4" transform="translate(146.056 495.866) rotate(30)" fill="#002ddc">
        <path d="M 80.71060180664062 93.5 L 27.28939819335938 93.5 L 0.5766324996948242 47 L 27.28939819335938 0.5 L 80.71060180664062 0.5 L 107.4233703613281 47 L 80.71060180664062 93.5 Z" stroke="none"/>
        <path d="M 27.57878875732422 1 L 1.15325927734375 47 L 27.57878875732422 93 L 80.42121124267578 93 L 106.8467407226562 47 L 80.42121124267578 1 L 27.57878875732422 1 M 27 0 L 81 0 L 108 47 L 81 94 L 27 94 L 0 47 L 27 0 Z" stroke="none"/>
      </g>
      <g transform="matrix(1, 0, 0, 1, -63.5, 268)" filter="url(#Polygon_4-2)">
        <g id="Polygon_4-5" data-name="Polygon 4" transform="translate(209.56 227.87) rotate(30)" fill="#fff">
          <path d="M 80.71060180664062 93.5 L 27.28939819335938 93.5 L 0.5766324996948242 47 L 27.28939819335938 0.5 L 80.71060180664062 0.5 L 107.4233703613281 47 L 80.71060180664062 93.5 Z" stroke="none"/>
          <path d="M 27.57878875732422 1 L 1.15325927734375 47 L 27.57878875732422 93 L 80.42121124267578 93 L 106.8467407226562 47 L 80.42121124267578 1 L 27.57878875732422 1 M 27 0 L 81 0 L 108 47 L 81 94 L 27 94 L 0 47 L 27 0 Z" stroke="none"/>
        </g>
      </g>
      <g id="Polygon_4-6" data-name="Polygon 4" transform="translate(146.056 495.866) rotate(30)" fill="none">
        <path d="M 80.71060180664062 93.5 L 27.28939819335938 93.5 L 0.5766324996948242 47 L 27.28939819335938 0.5 L 80.71060180664062 0.5 L 107.4233703613281 47 L 80.71060180664062 93.5 Z" stroke="none"/>
        <path d="M 27.57878875732422 1 L 1.15325927734375 47 L 27.57878875732422 93 L 80.42121124267578 93 L 106.8467407226562 47 L 80.42121124267578 1 L 27.57878875732422 1 M 27 0 L 81 0 L 108 47 L 81 94 L 27 94 L 0 47 L 27 0 Z" stroke="none" fill="#fff"/>
      </g>
    </g>
    <g data-type="innerShadowGroup">
      <g transform="matrix(1, 0, 0, 1, -63.5, 268)" filter="url(#Polygon_5)">
        <g id="Polygon_5-3" data-name="Polygon 5" transform="translate(303.09 226.87) rotate(30)" fill="#002ddc">
          <path d="M 80.71060180664062 93.5 L 27.28939819335938 93.5 L 0.5766324996948242 47 L 27.28939819335938 0.5 L 80.71060180664062 0.5 L 107.4233703613281 47 L 80.71060180664062 93.5 Z" stroke="none"/>
          <path d="M 27.57878875732422 1 L 1.15325927734375 47 L 27.57878875732422 93 L 80.42121124267578 93 L 106.8467407226562 47 L 80.42121124267578 1 L 27.57878875732422 1 M 27 0 L 81 0 L 108 47 L 81 94 L 27 94 L 0 47 L 27 0 Z" stroke="none" fill="#fff"/>
        </g>
      </g>
      <g id="Polygon_5-4" data-name="Polygon 5" transform="translate(239.587 494.866) rotate(30)" fill="#002ddc">
        <path d="M 80.71060180664062 93.5 L 27.28939819335938 93.5 L 0.5766324996948242 47 L 27.28939819335938 0.5 L 80.71060180664062 0.5 L 107.4233703613281 47 L 80.71060180664062 93.5 Z" stroke="none"/>
        <path d="M 27.57878875732422 1 L 1.15325927734375 47 L 27.57878875732422 93 L 80.42121124267578 93 L 106.8467407226562 47 L 80.42121124267578 1 L 27.57878875732422 1 M 27 0 L 81 0 L 108 47 L 81 94 L 27 94 L 0 47 L 27 0 Z" stroke="none"/>
      </g>
      <g transform="matrix(1, 0, 0, 1, -63.5, 268)" filter="url(#Polygon_5-2)">
        <g id="Polygon_5-5" data-name="Polygon 5" transform="translate(303.09 226.87) rotate(30)" fill="#fff">
          <path d="M 80.71060180664062 93.5 L 27.28939819335938 93.5 L 0.5766324996948242 47 L 27.28939819335938 0.5 L 80.71060180664062 0.5 L 107.4233703613281 47 L 80.71060180664062 93.5 Z" stroke="none"/>
          <path d="M 27.57878875732422 1 L 1.15325927734375 47 L 27.57878875732422 93 L 80.42121124267578 93 L 106.8467407226562 47 L 80.42121124267578 1 L 27.57878875732422 1 M 27 0 L 81 0 L 108 47 L 81 94 L 27 94 L 0 47 L 27 0 Z" stroke="none"/>
        </g>
      </g>
      <g id="Polygon_5-6" data-name="Polygon 5" transform="translate(239.587 494.866) rotate(30)" fill="none">
        <path d="M 80.71060180664062 93.5 L 27.28939819335938 93.5 L 0.5766324996948242 47 L 27.28939819335938 0.5 L 80.71060180664062 0.5 L 107.4233703613281 47 L 80.71060180664062 93.5 Z" stroke="none"/>
        <path d="M 27.57878875732422 1 L 1.15325927734375 47 L 27.57878875732422 93 L 80.42121124267578 93 L 106.8467407226562 47 L 80.42121124267578 1 L 27.57878875732422 1 M 27 0 L 81 0 L 108 47 L 81 94 L 27 94 L 0 47 L 27 0 Z" stroke="none" fill="#fff"/>
      </g>
    </g>
    <g data-type="innerShadowGroup">
      <g transform="matrix(1, 0, 0, 1, -63.5, 268)" filter="url(#Polygon_6)">
        <g id="Polygon_6-3" data-name="Polygon 6" transform="translate(395.62 225.87) rotate(30)" fill="#002ddc">
          <path d="M 80.71060180664062 93.5 L 27.28939819335938 93.5 L 0.5766324996948242 47 L 27.28939819335938 0.5 L 80.71060180664062 0.5 L 107.4233703613281 47 L 80.71060180664062 93.5 Z" stroke="none"/>
          <path d="M 27.57878875732422 1 L 1.15325927734375 47 L 27.57878875732422 93 L 80.42121124267578 93 L 106.8467407226562 47 L 80.42121124267578 1 L 27.57878875732422 1 M 27 0 L 81 0 L 108 47 L 81 94 L 27 94 L 0 47 L 27 0 Z" stroke="none" fill="#fff"/>
        </g>
      </g>
      <g id="Polygon_6-4" data-name="Polygon 6" transform="translate(332.117 493.866) rotate(30)" fill="#002ddc">
        <path d="M 80.71060180664062 93.5 L 27.28939819335938 93.5 L 0.5766324996948242 47 L 27.28939819335938 0.5 L 80.71060180664062 0.5 L 107.4233703613281 47 L 80.71060180664062 93.5 Z" stroke="none"/>
        <path d="M 27.57878875732422 1 L 1.15325927734375 47 L 27.57878875732422 93 L 80.42121124267578 93 L 106.8467407226562 47 L 80.42121124267578 1 L 27.57878875732422 1 M 27 0 L 81 0 L 108 47 L 81 94 L 27 94 L 0 47 L 27 0 Z" stroke="none"/>
      </g>
      <g transform="matrix(1, 0, 0, 1, -63.5, 268)" filter="url(#Polygon_6-2)">
        <g id="Polygon_6-5" data-name="Polygon 6" transform="translate(395.62 225.87) rotate(30)" fill="#fff">
          <path d="M 80.71060180664062 93.5 L 27.28939819335938 93.5 L 0.5766324996948242 47 L 27.28939819335938 0.5 L 80.71060180664062 0.5 L 107.4233703613281 47 L 80.71060180664062 93.5 Z" stroke="none"/>
          <path d="M 27.57878875732422 1 L 1.15325927734375 47 L 27.57878875732422 93 L 80.42121124267578 93 L 106.8467407226562 47 L 80.42121124267578 1 L 27.57878875732422 1 M 27 0 L 81 0 L 108 47 L 81 94 L 27 94 L 0 47 L 27 0 Z" stroke="none"/>
        </g>
      </g>
      <g id="Polygon_6-6" data-name="Polygon 6" transform="translate(332.117 493.866) rotate(30)" fill="none">
        <path d="M 80.71060180664062 93.5 L 27.28939819335938 93.5 L 0.5766324996948242 47 L 27.28939819335938 0.5 L 80.71060180664062 0.5 L 107.4233703613281 47 L 80.71060180664062 93.5 Z" stroke="none"/>
        <path d="M 27.57878875732422 1 L 1.15325927734375 47 L 27.57878875732422 93 L 80.42121124267578 93 L 106.8467407226562 47 L 80.42121124267578 1 L 27.57878875732422 1 M 27 0 L 81 0 L 108 47 L 81 94 L 27 94 L 0 47 L 27 0 Z" stroke="none" fill="#fff"/>
      </g>
    </g>
    <g transform="matrix(1, 0, 0, 1, -63.5, 268)" filter="url(#Line_2435)">
      <line id="Line_2435-2" data-name="Line 2435" x1="122.852" transform="translate(64 322.07)" fill="none" stroke="#fff" stroke-width="1"/>
    </g>
    <g transform="matrix(1, 0, 0, 1, -63.5, 268)" filter="url(#Line_2436)">
      <line id="Line_2436-2" data-name="Line 2436" x2="57.148" transform="translate(464.85 320.07)" fill="none" stroke="#fff" stroke-width="1"/>
    </g>
    <g data-type="innerShadowGroup">
      <g transform="matrix(1, 0, 0, 1, -63.5, 268)" filter="url(#Polygon_7)">
        <g id="Polygon_7-3" data-name="Polygon 7" transform="translate(303.09 64) rotate(30)" fill="#002ddc">
          <path d="M 81.45890808105469 95.5 L 27.54109573364258 95.5 L 0.5749490261077881 48 L 27.54109573364258 0.5 L 81.45890808105469 0.5 L 108.425048828125 48 L 81.45890808105469 95.5 Z" stroke="none"/>
          <path d="M 27.83219909667969 1 L 1.149909973144531 48 L 27.83219909667969 95 L 81.16780090332031 95 L 107.85009765625 48 L 81.16780090332031 1 L 27.83219909667969 1 M 27.25 0 L 81.75 0 L 109 48 L 81.75 96 L 27.25 96 L 0 48 L 27.25 0 Z" stroke="none" fill="#fff"/>
        </g>
      </g>
      <g id="Polygon_7-4" data-name="Polygon 7" transform="translate(239.587 332) rotate(30)" fill="#002ddc">
        <path d="M 81.45890808105469 95.5 L 27.54109573364258 95.5 L 0.5749490261077881 48 L 27.54109573364258 0.5 L 81.45890808105469 0.5 L 108.425048828125 48 L 81.45890808105469 95.5 Z" stroke="none"/>
        <path d="M 27.83219909667969 1 L 1.149909973144531 48 L 27.83219909667969 95 L 81.16780090332031 95 L 107.85009765625 48 L 81.16780090332031 1 L 27.83219909667969 1 M 27.25 0 L 81.75 0 L 109 48 L 81.75 96 L 27.25 96 L 0 48 L 27.25 0 Z" stroke="none"/>
      </g>
      <g transform="matrix(1, 0, 0, 1, -63.5, 268)" filter="url(#Polygon_7-2)">
        <g id="Polygon_7-5" data-name="Polygon 7" transform="translate(303.09 64) rotate(30)" fill="#fff">
          <path d="M 81.45890808105469 95.5 L 27.54109573364258 95.5 L 0.5749490261077881 48 L 27.54109573364258 0.5 L 81.45890808105469 0.5 L 108.425048828125 48 L 81.45890808105469 95.5 Z" stroke="none"/>
          <path d="M 27.83219909667969 1 L 1.149909973144531 48 L 27.83219909667969 95 L 81.16780090332031 95 L 107.85009765625 48 L 81.16780090332031 1 L 27.83219909667969 1 M 27.25 0 L 81.75 0 L 109 48 L 81.75 96 L 27.25 96 L 0 48 L 27.25 0 Z" stroke="none"/>
        </g>
      </g>
      <g id="Polygon_7-6" data-name="Polygon 7" transform="translate(239.587 332) rotate(30)" fill="none">
        <path d="M 81.45890808105469 95.5 L 27.54109573364258 95.5 L 0.5749490261077881 48 L 27.54109573364258 0.5 L 81.45890808105469 0.5 L 108.425048828125 48 L 81.45890808105469 95.5 Z" stroke="none"/>
        <path d="M 27.83219909667969 1 L 1.149909973144531 48 L 27.83219909667969 95 L 81.16780090332031 95 L 107.85009765625 48 L 81.16780090332031 1 L 27.83219909667969 1 M 27.25 0 L 81.75 0 L 109 48 L 81.75 96 L 27.25 96 L 0 48 L 27.25 0 Z" stroke="none" fill="#fff"/>
      </g>
    </g>
    <g id="_07-Fever" data-name="07-Fever" transform="translate(332.983 537.305)">
      <line id="Line_2437" data-name="Line 2437" x2="6.004" transform="translate(40.023 8.504)" fill="none" stroke="#fff" stroke-linejoin="round" stroke-width="1"/>
      <line id="Line_2438" data-name="Line 2438" x1="2.251" transform="translate(43.776 19.761)" fill="none" stroke="#fff" stroke-linejoin="round" stroke-width="1"/>
      <line id="Line_2439" data-name="Line 2439" x1="2.251" transform="translate(43.776 15.259)" fill="none" stroke="#fff" stroke-linejoin="round" stroke-width="1"/>
      <line id="Line_2440" data-name="Line 2440" x1="2.251" transform="translate(43.776 15.259)" fill="none" stroke="#fff" stroke-linejoin="round" stroke-width="1"/>
      <line id="Line_2441" data-name="Line 2441" x1="2.251" transform="translate(43.776 10.756)" fill="none" stroke="#fff" stroke-linejoin="round" stroke-width="1"/>
      <line id="Line_2442" data-name="Line 2442" x1="2.251" transform="translate(43.776 10.756)" fill="none" stroke="#fff" stroke-linejoin="round" stroke-width="1"/>
      <line id="Line_2443" data-name="Line 2443" x1="2.251" transform="translate(43.776 6.253)" fill="none" stroke="#fff" stroke-linejoin="round" stroke-width="1"/>
      <path id="Path_555" data-name="Path 555" d="M23,48.251S23,46,26,46s3,2.251,3,2.251Z" transform="translate(-5.49 -11.23)" fill="none" stroke="#fff" stroke-linejoin="round" stroke-width="1"/>
      <path id="Path_556" data-name="Path 556" d="M16.506,56v3L6,61.253" transform="translate(-1.248 -13.725)" fill="none" stroke="#fff" stroke-linejoin="round" stroke-width="1"/>
      <path id="Path_557" data-name="Path 557" d="M44.506,60.5,34,58.253V53" transform="translate(-8.235 -12.977)" fill="none" stroke="#fff" stroke-linejoin="round" stroke-width="1"/>
      <path id="Path_558" data-name="Path 558" d="M20,60s1.5,1.5,5.253,1.5S30.506,60,30.506,60" transform="translate(-4.741 -14.723)" fill="none" stroke="#fff" stroke-linejoin="round" stroke-width="1"/>
      <path id="Path_559" data-name="Path 559" d="M14,25.5l-2.251,1.876v3.752h-1.5A2.251,2.251,0,0,0,8,33.38v.75a5.27,5.27,0,0,0,3.752,5.253,10.6,10.6,0,0,0,10.506,8.255,10.6,10.6,0,0,0,10.506-8.255,5.27,5.27,0,0,0,3.752-5.253v-.75a2.251,2.251,0,0,0-2.251-2.251h-1.5v-3a5.853,5.853,0,0,1-2.251-2.135" transform="translate(-1.746 -6.114)" fill="none" stroke="#fff" stroke-linejoin="round" stroke-width="1"/>
      <path id="Path_560" data-name="Path 560" d="M6.253,31.513S4,30.013,4,25.51s3-6,3-6a6.464,6.464,0,0,1-6-3.752A32.687,32.687,0,0,0,10.756,12c5.253-3,7.5-3,10.506-3,3.752,0,6.754,3.752,6.754,3.752s.708-1.415,3.5-1.5c3.033-.089,5.51,3.72,5.51,6.75v8.174a3,3,0,0,1-.428,1.544L34.77,30.763" transform="translate(0 -1.996)" fill="none" stroke="#fff" stroke-linejoin="round" stroke-width="1"/>
      <path id="Path_561" data-name="Path 561" d="M27.75,1a2.032,2.032,0,0,1,.75,1.5c0,1.438-1.5,1.563-1.5,3" transform="translate(-6.488)" fill="none" stroke="#fff" stroke-linejoin="round" stroke-width="1"/>
      <path id="Path_562" data-name="Path 562" d="M35.75,1a2.032,2.032,0,0,1,.75,1.5c0,1.438-1.5,1.563-1.5,3" transform="translate(-8.485)" fill="none" stroke="#fff" stroke-linejoin="round" stroke-width="1"/>
      <path id="Path_563" data-name="Path 563" d="M19.75,1a2.032,2.032,0,0,1,.75,1.5c0,1.438-1.5,1.563-1.5,3" transform="translate(-4.492)" fill="none" stroke="#fff" stroke-linejoin="round" stroke-width="1"/>
      <path id="Path_564" data-name="Path 564" d="M37.331,33.94a10.356,10.356,0,0,1-2.011-.18" transform="translate(-8.565 -8.175)" fill="none" stroke="#fff" stroke-linejoin="round" stroke-width="1"/>
      <path id="Path_565" data-name="Path 565" d="M31,31a3.174,3.174,0,0,0,1.786,1.621" transform="translate(-7.487 -7.487)" fill="none" stroke="#fff" stroke-linejoin="round" stroke-width="1"/>
      <path id="Path_566" data-name="Path 566" d="M35,35.291c0,1.246-.675,2.251-1.5,2.251S32,36.537,32,35.291a2.33,2.33,0,0,1,1.036-2.131,6.56,6.56,0,0,0,1.456.45A2.765,2.765,0,0,1,35,35.291Z" transform="translate(-7.734 -8.026)" fill="none" stroke="#fff" stroke-linejoin="round" stroke-width="1"/>
      <path id="Path_567" data-name="Path 567" d="M18.011,33.76A10.356,10.356,0,0,1,16,33.94" transform="translate(-3.743 -8.175)" fill="none" stroke="#fff" stroke-linejoin="round" stroke-width="1"/>
      <path id="Path_568" data-name="Path 568" d="M20.62,32.621A3.174,3.174,0,0,0,22.406,31" transform="translate(-4.896 -7.487)" fill="none" stroke="#fff" stroke-linejoin="round" stroke-width="1"/>
      <path id="Path_569" data-name="Path 569" d="M21,35.291c0,1.246-.675,2.251-1.5,2.251S18,36.537,18,35.291a2.765,2.765,0,0,1,.51-1.681,6.56,6.56,0,0,0,1.456-.45A2.33,2.33,0,0,1,21,35.291Z" transform="translate(-4.242 -8.026)" fill="none" stroke="#fff" stroke-linejoin="round" stroke-width="1"/>
      <path id="Path_570" data-name="Path 570" d="M24.255,26.754a24.771,24.771,0,0,1,8.255,1.5V21.5A24.771,24.771,0,0,0,24.255,20,24.771,24.771,0,0,0,16,21.5v6.754a24.771,24.771,0,0,1,8.255-1.5Z" transform="translate(-3.743 -4.741)" fill="none" stroke="#fff" stroke-linejoin="round" stroke-width="1"/>
      <path id="Path_571" data-name="Path 571" d="M19,21v4.5a20.767,20.767,0,0,1,6-.75,20.767,20.767,0,0,1,6,.75V21" transform="translate(-4.492 -4.991)" fill="none" stroke="#fff" stroke-linejoin="round" stroke-width="1"/>
      <path id="Path_572" data-name="Path 572" d="M52.5,14.508v7.157a4.5,4.5,0,1,0,6,0V4a3,3,0,0,0-6,0v6" transform="translate(-12.477)" fill="none" stroke="#fff" stroke-linejoin="round" stroke-width="1"/>
      <line id="Line_2444" data-name="Line 2444" y2="1.501" transform="translate(40.023 11.506)" fill="none" stroke="#fff" stroke-linejoin="round" stroke-width="1"/>
    </g>
    <g id="_27-Lung" data-name="27-Lung" transform="translate(239.391 540.475)">
      <path id="Path_573" data-name="Path 573" d="M7.135,26C3.867,30.376,1,36.429,1,41.337c0,8.034,3.517,8.034,3.517,8.034H5.732a9.531,9.531,0,0,0,3.113-.524l5.374-1.86a8.743,8.743,0,0,0,5.77-8.314v-6.1" transform="translate(0 -6.472)" fill="none" stroke="#fff" stroke-linejoin="round" stroke-width="1"/>
      <path id="Path_574" data-name="Path 574" d="M26.191,27.942V24.326A6,6,0,0,0,24,19.658" transform="translate(-6.202 -4.762)" fill="none" stroke="#fff" stroke-linejoin="round" stroke-width="1"/>
      <path id="Path_575" data-name="Path 575" d="M37,27.495V23.879A5.749,5.749,0,0,1,42.5,18h.123c4.222,0,13.365,12.416,13.365,21.18,0,8.034-3.517,8.034-3.517,8.034H51.257a9.531,9.531,0,0,1-3.113-.524l-5.374-1.86A8.743,8.743,0,0,1,37,36.515v-6.1" transform="translate(-9.707 -4.314)" fill="none" stroke="#fff" stroke-linejoin="round" stroke-width="1"/>
      <path id="Path_576" data-name="Path 576" d="M27.843,8V23.337l-4.287,2.144A2.815,2.815,0,0,0,22,28h0a1.181,1.181,0,0,0,1.182,1.182h0a1.178,1.178,0,0,0,.529-.125l4.132-2.066h2.921L34.9,29.055a1.178,1.178,0,0,0,.529.125h0A1.181,1.181,0,0,0,36.607,28h0a2.815,2.815,0,0,0-1.555-2.517l-4.287-2.144V8" transform="translate(-5.663 -1.618)" fill="none" stroke="#fff" stroke-linejoin="round" stroke-width="1"/>
      <path id="Path_577" data-name="Path 577" d="M42,36l5.112,3.652v7.3L49.3,48.416" transform="translate(-11.056 -9.168)" fill="none" stroke="#fff" stroke-linejoin="round" stroke-width="1"/>
      <path id="Path_578" data-name="Path 578" d="M49,47h5.112l1.461,2.191" transform="translate(-12.943 -12.134)" fill="none" stroke="#fff" stroke-linejoin="round" stroke-width="1"/>
      <path id="Path_579" data-name="Path 579" d="M49,40.461h3.652L54.843,39" transform="translate(-12.943 -9.977)" fill="none" stroke="#fff" stroke-linejoin="round" stroke-width="1"/>
      <path id="Path_580" data-name="Path 580" d="M43,42.3l1.461-1.461V37.191h4.382V35" transform="translate(-11.325 -8.899)" fill="none" stroke="#fff" stroke-linejoin="round" stroke-width="1"/>
      <path id="Path_581" data-name="Path 581" d="M19.3,37l-5.112,3.652v7.3L12,49.416" transform="translate(-2.966 -9.438)" fill="none" stroke="#fff" stroke-linejoin="round" stroke-width="1"/>
      <path id="Path_582" data-name="Path 582" d="M12.573,48H7.461L6,50.191" transform="translate(-1.348 -12.404)" fill="none" stroke="#fff" stroke-linejoin="round" stroke-width="1"/>
      <path id="Path_583" data-name="Path 583" d="M13.112,42H9.461L8,43.461" transform="translate(-1.888 -10.786)" fill="none" stroke="#fff" stroke-linejoin="round" stroke-width="1"/>
      <line id="Line_2445" data-name="Line 2445" x1="2" y1="2" transform="translate(5.641 29.45)" fill="none" stroke="#fff" stroke-linejoin="round" stroke-width="1"/>
      <path id="Path_584" data-name="Path 584" d="M18.843,43.3l-1.461-1.461V38.191H13V36" transform="translate(-3.236 -9.168)" fill="none" stroke="#fff" stroke-linejoin="round" stroke-width="1"/>
      <circle id="Ellipse_1459" data-name="Ellipse 1459" cx="1.5" cy="1.5" r="1.5" transform="translate(35.641 23.45)" fill="none" stroke="#fff" stroke-linejoin="round" stroke-width="1"/>
      <circle id="Ellipse_1460" data-name="Ellipse 1460" cx="1.5" cy="1.5" r="1.5" transform="translate(29.641 32.45)" fill="none" stroke="#fff" stroke-linejoin="round" stroke-width="1"/>
      <line id="Line_2446" data-name="Line 2446" y2="2" transform="translate(32.641 21.45)" fill="none" stroke="#fff" stroke-linejoin="round" stroke-width="1"/>
      <line id="Line_2447" data-name="Line 2447" y2="2" transform="translate(36.641 18.45)" fill="none" stroke="#fff" stroke-linejoin="round" stroke-width="1"/>
      <line id="Line_2448" data-name="Line 2448" y2="1" transform="translate(41.641 25.45)" fill="none" stroke="#fff" stroke-linejoin="round" stroke-width="1"/>
      <line id="Line_2449" data-name="Line 2449" y2="1" transform="translate(33.641 36.45)" fill="none" stroke="#fff" stroke-linejoin="round" stroke-width="1"/>
      <line id="Line_2450" data-name="Line 2450" y2="1" transform="translate(41.641 39.45)" fill="none" stroke="#fff" stroke-linejoin="round" stroke-width="1"/>
      <circle id="Ellipse_1461" data-name="Ellipse 1461" cx="1" cy="1" r="1" transform="translate(41.641 31.45)" fill="none" stroke="#fff" stroke-linejoin="round" stroke-width="1"/>
      <circle id="Ellipse_1462" data-name="Ellipse 1462" cx="1.5" cy="1.5" r="1.5" transform="translate(8.641 23.45)" fill="none" stroke="#fff" stroke-linejoin="round" stroke-width="1"/>
      <circle id="Ellipse_1463" data-name="Ellipse 1463" cx="1.5" cy="1.5" r="1.5" transform="translate(14.641 33.45)" fill="none" stroke="#fff" stroke-linejoin="round" stroke-width="1"/>
      <line id="Line_2451" data-name="Line 2451" y2="1" transform="translate(14.641 22.45)" fill="none" stroke="#fff" stroke-linejoin="round" stroke-width="1"/>
      <line id="Line_2452" data-name="Line 2452" y2="2" transform="translate(10.641 19.45)" fill="none" stroke="#fff" stroke-linejoin="round" stroke-width="1"/>
      <line id="Line_2453" data-name="Line 2453" y2="1" transform="translate(5.641 26.45)" fill="none" stroke="#fff" stroke-linejoin="round" stroke-width="1"/>
      <line id="Line_2454" data-name="Line 2454" y2="1" transform="translate(13.641 37.45)" fill="none" stroke="#fff" stroke-linejoin="round" stroke-width="1"/>
      <line id="Line_2455" data-name="Line 2455" y2="1" transform="translate(5.641 40.45)" fill="none" stroke="#fff" stroke-linejoin="round" stroke-width="1"/>
      <circle id="Ellipse_1464" data-name="Ellipse 1464" cx="1" cy="1" r="1" transform="translate(3.641 32.45)" fill="none" stroke="#fff" stroke-linejoin="round" stroke-width="1"/>
      <circle id="Ellipse_1465" data-name="Ellipse 1465" cx="8" cy="8" r="8" transform="translate(0.641 2.45)" fill="none" stroke="#fff" stroke-linejoin="round" stroke-width="1"/>
      <circle id="Ellipse_1466" data-name="Ellipse 1466" cx="3" cy="3" r="3" transform="translate(5.641 7.45)" fill="none" stroke="#fff" stroke-linejoin="round" stroke-width="1"/>
      <line id="Line_2456" data-name="Line 2456" y2="3" transform="translate(8.641 4.45)" fill="none" stroke="#fff" stroke-linejoin="round" stroke-width="1"/>
      <line id="Line_2457" data-name="Line 2457" x2="3" transform="translate(7.641 4.45)" fill="none" stroke="#fff" stroke-linejoin="round" stroke-width="1"/>
      <line id="Line_2458" data-name="Line 2458" y1="2" transform="translate(8.641 13.45)" fill="none" stroke="#fff" stroke-linejoin="round" stroke-width="1"/>
      <line id="Line_2459" data-name="Line 2459" x1="3" transform="translate(7.641 15.45)" fill="none" stroke="#fff" stroke-linejoin="round" stroke-width="1"/>
      <line id="Line_2460" data-name="Line 2460" x1="3" transform="translate(11.641 10.45)" fill="none" stroke="#fff" stroke-linejoin="round" stroke-width="1"/>
      <line id="Line_2461" data-name="Line 2461" y2="3" transform="translate(14.641 8.45)" fill="none" stroke="#fff" stroke-linejoin="round" stroke-width="1"/>
      <line id="Line_2462" data-name="Line 2462" x2="2" transform="translate(3.641 10.45)" fill="none" stroke="#fff" stroke-linejoin="round" stroke-width="1"/>
      <line id="Line_2463" data-name="Line 2463" y1="3" transform="translate(3.641 8.45)" fill="none" stroke="#fff" stroke-linejoin="round" stroke-width="1"/>
      <line id="Line_2464" data-name="Line 2464" x1="1.461" y1="1.461" transform="translate(10.982 11.982)" fill="none" stroke="#fff" stroke-linejoin="round" stroke-width="1"/>
      <line id="Line_2465" data-name="Line 2465" x1="1.948" y2="1.948" transform="translate(11.468 12.468)" fill="none" stroke="#fff" stroke-linejoin="round" stroke-width="1"/>
      <line id="Line_2466" data-name="Line 2466" x2="1.461" y2="1.461" transform="translate(5.625 6.625)" fill="none" stroke="#fff" stroke-linejoin="round" stroke-width="1"/>
      <line id="Line_2467" data-name="Line 2467" y1="1.948" x2="1.948" transform="translate(4.652 5.652)" fill="none" stroke="#fff" stroke-linejoin="round" stroke-width="1"/>
      <line id="Line_2468" data-name="Line 2468" y1="1.461" x2="1.461" transform="translate(5.625 11.982)" fill="none" stroke="#fff" stroke-linejoin="round" stroke-width="1"/>
      <line id="Line_2469" data-name="Line 2469" x1="1.948" y1="1.948" transform="translate(4.652 12.468)" fill="none" stroke="#fff" stroke-linejoin="round" stroke-width="1"/>
      <line id="Line_2470" data-name="Line 2470" x1="1.461" y2="1.461" transform="translate(10.982 6.625)" fill="none" stroke="#fff" stroke-linejoin="round" stroke-width="1"/>
      <line id="Line_2471" data-name="Line 2471" x2="1.948" y2="1.948" transform="translate(11.468 5.652)" fill="none" stroke="#fff" stroke-linejoin="round" stroke-width="1"/>
    </g>
    <g id="_22-Cough" data-name="22-Cough" transform="translate(285.043 458.567)">
      <line id="Line_2472" data-name="Line 2472" x1="7" y2="2" transform="translate(3.873 34.002)" fill="none" stroke="#fff" stroke-linejoin="round" stroke-width="1"/>
      <line id="Line_2473" data-name="Line 2473" x1="7" y2="2" transform="translate(3.873 39.002)" fill="none" stroke="#fff" stroke-linejoin="round" stroke-width="1"/>
      <line id="Line_2474" data-name="Line 2474" x1="2.839" y2="0.946" transform="translate(7.549 36.251)" fill="none" stroke="#fff" stroke-linejoin="round" stroke-width="1"/>
      <line id="Line_2475" data-name="Line 2475" x1="2" y2="1" transform="translate(11.873 35.002)" fill="none" stroke="#fff" stroke-linejoin="round" stroke-width="1"/>
      <line id="Line_2476" data-name="Line 2476" x1="2.839" y2="0.946" transform="translate(4 31.993)" fill="none" stroke="#fff" stroke-linejoin="round" stroke-width="1"/>
      <line id="Line_2477" data-name="Line 2477" x1="3" y2="1" transform="translate(7.873 31.002)" fill="none" stroke="#fff" stroke-linejoin="round" stroke-width="1"/>
      <path id="Path_585" data-name="Path 585" d="M48,34.549V31s2.129,0,2.129,1.419S48,34.549,48,34.549Z" transform="translate(-12.771 -8.708)" fill="none" stroke="#fff" stroke-linejoin="round" stroke-width="1"/>
      <path id="Path_586" data-name="Path 586" d="M16,12.356v-.71h0A10.909,10.909,0,0,1,27.153,1h6.692c7.391,0,13.384,5.72,13.384,12.775v5.678c0,2.129-.989,6.784-3.549,9.227l-1.111,1.111a5.9,5.9,0,0,0-1.728,4.173v.395H38.712" transform="translate(-3.483)" fill="none" stroke="#fff" stroke-linejoin="round" stroke-width="1"/>
      <path id="Path_587" data-name="Path 587" d="M24.258,24,20,26.839l4.258,2.839" transform="translate(-4.644 -6.676)" fill="none" stroke="#fff" stroke-linejoin="round" stroke-width="1"/>
      <path id="Path_588" data-name="Path 588" d="M35.517,56.129,41.9,54h2.129v6.388H27a2.129,2.129,0,0,1,2.129-2.129h0l2.129-.71" transform="translate(-6.676 -15.383)" fill="none" stroke="#fff" stroke-linejoin="round" stroke-width="1"/>
      <line id="Line_2478" data-name="Line 2478" y1="0.473" x2="1.419" transform="translate(26.002 41.219)" fill="none" stroke="#fff" stroke-linejoin="round" stroke-width="1"/>
      <path id="Path_589" data-name="Path 589" d="M37.551,40.68V32.163l2.91-1.389a2.988,2.988,0,0,0,1.349-2.87V26.238a2.74,2.74,0,0,0-2.7-2.592H31.873C26.736,23.646,21.936,13,17.678,13a4.848,4.848,0,0,1-2.839,2.839v7.807c0,1.065-1.6,3.327-2.4,4.392A2.205,2.205,0,0,0,12,29.362v.024a2.2,2.2,0,0,0,1.214,1.965l1.625.812A13.971,13.971,0,0,0,16.019,35h3.788a1.419,1.419,0,0,1,1.419,1.419h0l-3.278,1.329a10.669,10.669,0,0,0,6.827,3.557v5.05" transform="translate(-2.322 -3.483)" fill="none" stroke="#fff" stroke-linejoin="round" stroke-width="1"/>
    </g>
    <g id="Microscope_Virus" transform="translate(148.321 540.569)">
      <g id="Group_9617" data-name="Group 9617">
        <path id="Path_592" data-name="Path 592" d="M39.968,36.581H30.484V33.7A13.54,13.54,0,0,0,28.452,6.774H21V4.742a.679.679,0,0,0-.677-.677H18.968V1.355h.677a.677.677,0,1,0,0-1.355H11.516a.677.677,0,1,0,0,1.355h.677v2.71H10.839a.679.679,0,0,0-.677.677V7.716a8.353,8.353,0,0,0-2.032-.264,8.129,8.129,0,1,0,4.112,15.134.675.675,0,0,0,.63.447H18.29a.679.679,0,0,0,.677-.677V18.968h1.355A.679.679,0,0,0,21,18.29V14.9h2.032a.679.679,0,0,0,.677-.677V12.194h4.742a8.125,8.125,0,0,1,.569,16.231,4.72,4.72,0,0,0-6.591.027H19.523a2.019,2.019,0,0,0-1.91-2.71H10.839a2.032,2.032,0,1,0,0,4.065v.677a3.388,3.388,0,0,0,3.387,3.387H21v2.71H10.161a2.038,2.038,0,0,0-2.032,2.032v1.355A2.038,2.038,0,0,0,10.161,42H39.968A2.038,2.038,0,0,0,42,39.968V38.613A2.038,2.038,0,0,0,39.968,36.581ZM13.548,1.355h4.065v2.71H13.548ZM1.355,15.581a6.774,6.774,0,1,1,6.774,6.774A6.785,6.785,0,0,1,1.355,15.581Zm16.258,6.1H13.548v-.054a8.176,8.176,0,0,0,1.958-2.655h2.107Zm2.032-4.065H15.994a8.035,8.035,0,0,0,.264-2.032A8.134,8.134,0,0,0,11.516,8.2V5.419h8.129V17.613Zm18.29,2.71a9.483,9.483,0,0,0-9.484-9.484H23.032a.679.679,0,0,0-.677.677v2.032H21V8.129h7.452a12.187,12.187,0,0,1,2.032,24.2v-.495a4.654,4.654,0,0,0-.528-2.161A9.424,9.424,0,0,0,37.935,20.323ZM10.161,27.774a.679.679,0,0,1,.677-.677h6.774a.677.677,0,1,1,0,1.355H10.839A.679.679,0,0,1,10.161,27.774Zm4.065,4.742a2.038,2.038,0,0,1-2.032-2.032v-.677h9.274A4.663,4.663,0,0,0,21,31.839v.677Zm8.129-.677a3.387,3.387,0,1,1,6.774,0v4.742H22.355Zm18.29,8.129a.679.679,0,0,1-.677.677H10.161a.679.679,0,0,1-.677-.677V38.613a.679.679,0,0,1,.677-.677H39.968a.679.679,0,0,1,.677.677Z" fill="#fff"/>
        <path id="Path_593" data-name="Path 593" d="M37.032,44a2.032,2.032,0,1,0,2.032,2.032A2.038,2.038,0,0,0,37.032,44Zm0,2.71a.677.677,0,1,1,.677-.677A.679.679,0,0,1,37.032,46.71Z" transform="translate(-11.29 -14.194)" fill="#fff"/>
        <path id="Path_594" data-name="Path 594" d="M14.161,21.1a.677.677,0,1,0,0-1.355h-.738a4.03,4.03,0,0,0-.691-1.673l.522-.522a.675.675,0,1,0-.955-.955l-.522.522a4.03,4.03,0,0,0-1.673-.691v-.745a.677.677,0,1,0-1.355,0v.738a4.03,4.03,0,0,0-1.673.691l-.522-.522a.675.675,0,1,0-.955.955l.522.522a3.941,3.941,0,0,0-.7,1.68H4.677a.677.677,0,1,0,0,1.355h.738a4.03,4.03,0,0,0,.691,1.673l-.522.522a.675.675,0,0,0,0,.955.665.665,0,0,0,.481.2.694.694,0,0,0,.481-.2l.522-.522a4.03,4.03,0,0,0,1.673.691v.745a.677.677,0,1,0,1.355,0v-.738a4.03,4.03,0,0,0,1.673-.691l.522.522a.687.687,0,0,0,.962,0,.675.675,0,0,0,0-.955l-.522-.522a4.03,4.03,0,0,0,.691-1.673h.738ZM9.419,23.129a2.71,2.71,0,1,1,2.71-2.71A2.709,2.709,0,0,1,9.419,23.129Z" transform="translate(-1.29 -4.839)" fill="#fff"/>
        <ellipse id="Ellipse_1467" data-name="Ellipse 1467" cx="0.5" cy="1" rx="0.5" ry="1" transform="translate(8 14)" fill="#fff"/>
      </g>
    </g>
    <g id="recovery" transform="translate(158.228 296.435)">
      <path id="Path_639" data-name="Path 639" d="M298.73,103.519a.469.469,0,0,1-.456-.359,16.737,16.737,0,0,0-.818-2.505.469.469,0,0,1,.253-.614l2.383-.993a.469.469,0,0,1,.614.253,20.276,20.276,0,0,1,.991,3.034.47.47,0,0,1-.346.566l-2.51.605A.469.469,0,0,1,298.73,103.519Zm-.233-2.79a17.7,17.7,0,0,1,.573,1.756l1.6-.385a19.351,19.351,0,0,0-.654-2Zm-1.843-2.2a.469.469,0,0,1-.4-.223,16.948,16.948,0,0,0-1.556-2.131.47.47,0,0,1,.051-.662l1.96-1.68a.469.469,0,0,1,.662.051,20.482,20.482,0,0,1,1.88,2.576.469.469,0,0,1-.153.646l-2.2,1.354a.467.467,0,0,1-.246.07Zm-.942-2.605a17.916,17.916,0,0,1,1.09,1.493l1.4-.862a19.543,19.543,0,0,0-1.241-1.7Zm-2.578-1.5a.467.467,0,0,1-.3-.112,16.929,16.929,0,0,0-2.136-1.55.469.469,0,0,1-.155-.645l1.348-2.2a.469.469,0,0,1,.646-.155,20.468,20.468,0,0,1,2.581,1.873.469.469,0,0,1,.053.662l-1.675,1.965a.468.468,0,0,1-.357.165Zm-1.553-2.213a17.9,17.9,0,0,1,1.5,1.086l1.066-1.251a19.571,19.571,0,0,0-1.7-1.237Zm-3.058-.61a.469.469,0,0,1-.179-.036,16.744,16.744,0,0,0-2.509-.811.47.47,0,0,1-.348-.565l.6-2.512a.469.469,0,0,1,.565-.348,20.278,20.278,0,0,1,3.038.982.469.469,0,0,1,.255.613l-.986,2.386a.469.469,0,0,1-.434.29Zm-2.016-1.645a17.7,17.7,0,0,1,1.759.569l.628-1.519a19.373,19.373,0,0,0-2.006-.649Z" transform="translate(-178.299 -2.731)" fill="#fff"/>
      <path id="Path_640" data-name="Path 640" d="M175.26,182.294H165.2a.469.469,0,0,1-.469-.469v-5.336H159.4a.469.469,0,0,1-.469-.469V165.962a.469.469,0,0,1,.469-.469h5.336v-5.337a.469.469,0,0,1,.469-.469H175.26a.469.469,0,0,1,.469.469v5.337h5.337a.469.469,0,0,1,.469.469v10.056a.469.469,0,0,1-.469.469h-5.337v5.336a.469.469,0,0,1-.469.469Zm-9.587-.939h9.118v-5.336a.469.469,0,0,1,.469-.469H180.6v-9.118H175.26a.469.469,0,0,1-.469-.469v-5.337h-9.118v5.337a.469.469,0,0,1-.469.469h-5.336v9.118H165.2a.469.469,0,0,1,.469.469Z" transform="translate(-66.606 -66.606)" fill="#fff"/>
      <path id="Path_641" data-name="Path 641" d="M103.626,124.544a20.16,20.16,0,1,1,0-40.32.469.469,0,0,1,.47.47v2.23a.469.469,0,0,1-.47.469,16.991,16.991,0,1,0,16.525,20.954h-.833a1.252,1.252,0,0,1-.994-2.014l2.607-3.4a1.252,1.252,0,0,1,1.989,0l2.6,3.395h0a1.252,1.252,0,0,1-.994,2.014H123.4a20.194,20.194,0,0,1-19.769,16.2Zm-.469-39.376a19.221,19.221,0,1,0,19.388,22.626.469.469,0,0,1,.462-.386h1.524a.313.313,0,0,0,.249-.5l.373-.286-.373.285-2.605-3.4a.313.313,0,0,0-.5,0l-2.608,3.4a.313.313,0,0,0,.249.5h1.418a.469.469,0,0,1,.46.563A17.931,17.931,0,1,1,103.157,86.46Z" fill="#fff"/>
    </g>
    <g id="health_insurance" transform="translate(118.338 420.447)">
      <path id="Path_642" data-name="Path 642" d="M113.637,79.906h1.111v1.111a.386.386,0,0,0,.386.386h2.592a.386.386,0,0,0,.386-.386V79.906h1.111a.386.386,0,0,0,.386-.386V76.928a.386.386,0,0,0-.386-.386h-1.111V75.431a.386.386,0,0,0-.386-.386h-2.592a.386.386,0,0,0-.386.386v1.111h-1.111a.386.386,0,0,0-.386.386V79.52a.386.386,0,0,0,.386.386Zm.386-2.592h1.111a.386.386,0,0,0,.386-.386V75.817h1.82v1.111a.386.386,0,0,0,.386.386h1.111v1.82h-1.111a.386.386,0,0,0-.386.386v1.111h-1.82V79.52a.386.386,0,0,0-.386-.386h-1.111Z" transform="translate(-29.312 -28.694)" fill="#fff"/>
      <rect id="Rectangle_5376" data-name="Rectangle 5376" width="8.12" height="0.772" transform="translate(97.893 46.808)" fill="#fff"/>
      <rect id="Rectangle_5377" data-name="Rectangle 5377" width="8.12" height="0.772" transform="translate(97.893 48.175)" fill="#fff"/>
      <rect id="Rectangle_5378" data-name="Rectangle 5378" width="8.12" height="0.772" transform="translate(97.893 49.601)" fill="#fff"/>
      <rect id="Rectangle_5379" data-name="Rectangle 5379" width="8.12" height="0.772" transform="translate(97.893 50.927)" fill="#fff"/>
      <path id="Path_643" data-name="Path 643" d="M112.615,172.809h9.336a.386.386,0,0,0,.386-.386V158.8a.386.386,0,0,0-.386-.386h-9.336a.386.386,0,0,0-.386.386v13.628A.386.386,0,0,0,112.615,172.809ZM113,159.181h8.563v12.856H113Z" transform="translate(-28.388 -104.011)" fill="#fff"/>
      <path id="Path_644" data-name="Path 644" d="M121.312,331.438h-9.675a.386.386,0,0,0-.386.386v5.463a.386.386,0,0,0,.386.386h9.675a.386.386,0,0,0,.386-.386v-5.463A.386.386,0,0,0,121.312,331.438Zm-.386,5.463h-8.9v-4.69h8.9Z" transform="translate(-27.505 -260.339)" fill="#fff"/>
      <path id="Path_645" data-name="Path 645" d="M114.092,58.267a.387.387,0,0,0-.3-.1,8.275,8.275,0,0,1-.9.049,8.136,8.136,0,0,1-3.359-.724V43.671a.386.386,0,0,0-.386-.386H81.194a.386.386,0,0,0-.386.386v36.9a.386.386,0,0,0,.386.386h27.953a.386.386,0,0,0,.386-.386V73.568l.018-.013a10.719,10.719,0,0,0,4.663-8.578l.007-.311v-6.11a.386.386,0,0,0-.128-.288Zm-5.331,21.919H81.58V44.057h27.181V57.094a7.766,7.766,0,0,1-2.338-2.123.386.386,0,0,0-.625,0,7.986,7.986,0,0,1-6.469,3.249,8.223,8.223,0,0,1-.9-.049.386.386,0,0,0-.428.384v6.054l.007.366a10.72,10.72,0,0,0,4.663,8.58l3.222,2.224a.386.386,0,0,0,.439,0l2.432-1.678Zm4.681-15.226a9.946,9.946,0,0,1-4.329,7.958l-3,2.073-3-2.073a9.946,9.946,0,0,1-4.329-7.958l-.007-.359V58.976c.185.011.371.017.557.017a8.783,8.783,0,0,0,6.782-3.164,8.782,8.782,0,0,0,6.782,3.164c.185,0,.371-.006.557-.017v5.681Z" transform="translate(0 0)" fill="#fff"/>
      <path id="Path_646" data-name="Path 646" d="M288.491,190.626a9.711,9.711,0,0,1-5.85-2.48.386.386,0,0,0-.52,0,9.714,9.714,0,0,1-5.851,2.48.386.386,0,0,0-.36.385v4.37l.007.351a9.075,9.075,0,0,0,3.954,7.259l2.29,1.581a.386.386,0,0,0,.439,0l2.29-1.581a9.08,9.08,0,0,0,3.954-7.264l.006-.293v-4.424a.386.386,0,0,0-.36-.385Zm-.419,5.087a8.307,8.307,0,0,1-3.621,6.644l-2.071,1.429-2.071-1.429a8.3,8.3,0,0,1-3.621-6.638l-.006-.344v-4.009a10.5,10.5,0,0,0,5.7-2.42,10.5,10.5,0,0,0,5.7,2.42v4.061Z" transform="translate(-176.27 -130.788)" fill="#fff"/>
      <path id="Path_647" data-name="Path 647" d="M307.4,232.462h-1.661V230.8a.386.386,0,0,0-.386-.386H301.8a.386.386,0,0,0-.386.386v1.66h-1.661a.386.386,0,0,0-.386.386v3.545a.386.386,0,0,0,.386.386h1.661v1.66a.386.386,0,0,0,.386.386h3.545a.386.386,0,0,0,.386-.386v-1.661H307.4a.386.386,0,0,0,.386-.386v-3.545A.386.386,0,0,0,307.4,232.462Zm-.386,3.545H305.35a.386.386,0,0,0-.386.386v1.66h-2.773v-1.66a.386.386,0,0,0-.386-.386h-1.661v-2.773H301.8a.386.386,0,0,0,.386-.386v-1.66h2.773v1.66a.386.386,0,0,0,.386.386h1.661Z" transform="translate(-197.467 -169.067)" fill="#fff"/>
    </g>
  </g>
</svg>
