<svg id="Home" xmlns="http://www.w3.org/2000/svg" width="23.752" height="25" viewBox="0 0 23.752 25">
  <path id="Home-2" data-name="Home" d="M19.1,25H16.614a2.278,2.278,0,0,1-2.238-2.112l-.012-.176V19.138a.793.793,0,0,0-.675-.776l-.113-.012H10.237a.792.792,0,0,0-.774.675l-.012.114V22.7a1.323,1.323,0,0,1-.025.224l-.012.026-.015.087a2.266,2.266,0,0,1-2.111,1.951L7.125,25H4.887A4.89,4.89,0,0,1,0,20.374V9.988a3.721,3.721,0,0,1,1.25-2.74L9.038.986a4.542,4.542,0,0,1,5.45-.151l.2.151L22.3,7.075a3.764,3.764,0,0,1,1.439,2.661l.012.252V20.125A4.895,4.895,0,0,1,19.1,25ZM10.05,16.611h3.526A2.545,2.545,0,0,1,16.1,18.95v3.762a.545.545,0,0,0,.438.537h2.324A3.133,3.133,0,0,0,22,20.324l.015-.2V10a2.026,2.026,0,0,0-.626-1.412l-.162-.138L13.6,2.348a2.785,2.785,0,0,0-1.739-.6A2.822,2.822,0,0,0,10.3,2.21l-.189.138-7.6,6.126A1.941,1.941,0,0,0,1.751,9.8l-.015.2V20.125a3.139,3.139,0,0,0,2.952,3.124H7.125a.535.535,0,0,0,.549-.448l.026-.225.014-.064V19.138A2.514,2.514,0,0,1,10.05,16.611Z" transform="translate(0 0)" fill="#002ddc"/>
</svg>
