<svg xmlns="http://www.w3.org/2000/svg" width="18.474" height="18.44" viewBox="0 0 18.474 18.44">
  <g id="Layer_18" data-name="Layer 18" transform="translate(-0.994 -1)">
    <path id="Path_963" data-name="Path 963" d="M1.612,19.439A.615.615,0,0,1,1,18.757l.553-5.022a.615.615,0,0,1,.178-.369L13.457,1.645a2.188,2.188,0,0,1,3.1,0l2.262,2.231a2.188,2.188,0,0,1,0,3.1L7.07,18.7a.615.615,0,0,1-.369.178l-5.022.559Zm5.022-1.174ZM2.756,14.08,2.307,18.13l4.051-.449L17.925,6.108a.971.971,0,0,0,0-1.365L15.694,2.512a.971.971,0,0,0-1.365,0Z" fill="#fff"/>
    <path id="Path_964" data-name="Path 964" d="M23.338,10.165a.615.615,0,0,1-.43-.178L18.44,5.519a.622.622,0,0,1,.891-.867L23.775,9.1a.637.637,0,0,1-.436,1.069Z" transform="translate(-6.655 -1.335)" fill="#fff"/>
    <rect id="Rectangle_5431" data-name="Rectangle 5431" width="7.892" height="1.229" transform="translate(6.2 13.367) rotate(-45)" fill="#fff"/>
  </g>
</svg>
